<svg xmlns="http://www.w3.org/2000/svg" viewBox="0 0 512 512" role="img" aria-label="Cronósfera">
  <circle cx="236" cy="240" r="214" fill="#3a3a3c"/>
  <defs><path id="arcoTexto" d="M 87.9 347.6 A 183 183 0 0 1 304.6 70.3"/></defs>
  <text font-family="'Inter', 'Segoe UI', Arial, sans-serif" font-size="48" font-weight="300" letter-spacing="10" fill="#ffffff">
    <textPath href="#arcoTexto" startOffset="2%">CRONÓSFERA</textPath>
  </text>
  <circle cx="278" cy="218" r="162" fill="#ffffff" stroke="#111" stroke-width="5"/><circle cx="278" cy="218" r="150" fill="none" stroke="#111" stroke-width="2.5"/><text x="278.0" y="92.0" font-family="Georgia, 'Times New Roman', serif" font-size="34" fill="#111" text-anchor="middle" dominant-baseline="central" transform="rotate(0 278.0 92.0)">XII</text><text x="341.0" y="108.9" font-family="Georgia, 'Times New Roman', serif" font-size="34" fill="#111" text-anchor="middle" dominant-baseline="central" transform="rotate(30 341.0 108.9)">I</text><text x="387.1" y="155.0" font-family="Georgia, 'Times New Roman', serif" font-size="34" fill="#111" text-anchor="middle" dominant-baseline="central" transform="rotate(60 387.1 155.0)">II</text><text x="404.0" y="218.0" font-family="Georgia, 'Times New Roman', serif" font-size="34" fill="#111" text-anchor="middle" dominant-baseline="central" transform="rotate(90 404.0 218.0)">III</text><text x="387.1" y="281.0" font-family="Georgia, 'Times New Roman', serif" font-size="34" fill="#111" text-anchor="middle" dominant-baseline="central" transform="rotate(120 387.1 281.0)">IV</text><text x="341.0" y="327.1" font-family="Georgia, 'Times New Roman', serif" font-size="34" fill="#111" text-anchor="middle" dominant-baseline="central" transform="rotate(150 341.0 327.1)">V</text><text x="278.0" y="344.0" font-family="Georgia, 'Times New Roman', serif" font-size="34" fill="#111" text-anchor="middle" dominant-baseline="central" transform="rotate(180 278.0 344.0)">VI</text><text x="215.0" y="327.1" font-family="Georgia, 'Times New Roman', serif" font-size="34" fill="#111" text-anchor="middle" dominant-baseline="central" transform="rotate(210 215.0 327.1)">VII</text><text x="168.9" y="281.0" font-family="Georgia, 'Times New Roman', serif" font-size="34" fill="#111" text-anchor="middle" dominant-baseline="central" transform="rotate(240 168.9 281.0)">VIII</text><text x="152.0" y="218.0" font-family="Georgia, 'Times New Roman', serif" font-size="34" fill="#111" text-anchor="middle" dominant-baseline="central" transform="rotate(270 152.0 218.0)">IX</text><text x="168.9" y="155.0" font-family="Georgia, 'Times New Roman', serif" font-size="34" fill="#111" text-anchor="middle" dominant-baseline="central" transform="rotate(300 168.9 155.0)">X</text><text x="215.0" y="108.9" font-family="Georgia, 'Times New Roman', serif" font-size="34" fill="#111" text-anchor="middle" dominant-baseline="central" transform="rotate(330 215.0 108.9)">XI</text><circle cx="278" cy="218" r="100" fill="none" stroke="#111" stroke-width="2"/><circle cx="278" cy="218" r="86" fill="none" stroke="#111" stroke-width="2"/><line x1="364.0" y1="218.0" x2="378.0" y2="218.0" stroke="#111" stroke-width="3"/><line x1="363.5" y1="209.0" x2="377.5" y2="207.5" stroke="#111" stroke-width="1.4"/><line x1="362.1" y1="200.1" x2="375.8" y2="197.2" stroke="#111" stroke-width="1.4"/><line x1="359.8" y1="191.4" x2="373.1" y2="187.1" stroke="#111" stroke-width="1.4"/><line x1="356.6" y1="183.0" x2="369.4" y2="177.3" stroke="#111" stroke-width="1.4"/><line x1="352.5" y1="175.0" x2="364.6" y2="168.0" stroke="#111" stroke-width="3"/><line x1="347.6" y1="167.5" x2="358.9" y2="159.2" stroke="#111" stroke-width="1.4"/><line x1="341.9" y1="160.5" x2="352.3" y2="151.1" stroke="#111" stroke-width="1.4"/><line x1="335.5" y1="154.1" x2="344.9" y2="143.7" stroke="#111" stroke-width="1.4"/><line x1="328.5" y1="148.4" x2="336.8" y2="137.1" stroke="#111" stroke-width="1.4"/><line x1="321.0" y1="143.5" x2="328.0" y2="131.4" stroke="#111" stroke-width="3"/><line x1="313.0" y1="139.4" x2="318.7" y2="126.6" stroke="#111" stroke-width="1.4"/><line x1="304.6" y1="136.2" x2="308.9" y2="122.9" stroke="#111" stroke-width="1.4"/><line x1="295.9" y1="133.9" x2="298.8" y2="120.2" stroke="#111" stroke-width="1.4"/><line x1="287.0" y1="132.5" x2="288.5" y2="118.5" stroke="#111" stroke-width="1.4"/><line x1="278.0" y1="132.0" x2="278.0" y2="118.0" stroke="#111" stroke-width="3"/><line x1="269.0" y1="132.5" x2="267.5" y2="118.5" stroke="#111" stroke-width="1.4"/><line x1="260.1" y1="133.9" x2="257.2" y2="120.2" stroke="#111" stroke-width="1.4"/><line x1="251.4" y1="136.2" x2="247.1" y2="122.9" stroke="#111" stroke-width="1.4"/><line x1="243.0" y1="139.4" x2="237.3" y2="126.6" stroke="#111" stroke-width="1.4"/><line x1="235.0" y1="143.5" x2="228.0" y2="131.4" stroke="#111" stroke-width="3"/><line x1="227.5" y1="148.4" x2="219.2" y2="137.1" stroke="#111" stroke-width="1.4"/><line x1="220.5" y1="154.1" x2="211.1" y2="143.7" stroke="#111" stroke-width="1.4"/><line x1="214.1" y1="160.5" x2="203.7" y2="151.1" stroke="#111" stroke-width="1.4"/><line x1="208.4" y1="167.5" x2="197.1" y2="159.2" stroke="#111" stroke-width="1.4"/><line x1="203.5" y1="175.0" x2="191.4" y2="168.0" stroke="#111" stroke-width="3"/><line x1="199.4" y1="183.0" x2="186.6" y2="177.3" stroke="#111" stroke-width="1.4"/><line x1="196.2" y1="191.4" x2="182.9" y2="187.1" stroke="#111" stroke-width="1.4"/><line x1="193.9" y1="200.1" x2="180.2" y2="197.2" stroke="#111" stroke-width="1.4"/><line x1="192.5" y1="209.0" x2="178.5" y2="207.5" stroke="#111" stroke-width="1.4"/><line x1="192.0" y1="218.0" x2="178.0" y2="218.0" stroke="#111" stroke-width="3"/><line x1="192.5" y1="227.0" x2="178.5" y2="228.5" stroke="#111" stroke-width="1.4"/><line x1="193.9" y1="235.9" x2="180.2" y2="238.8" stroke="#111" stroke-width="1.4"/><line x1="196.2" y1="244.6" x2="182.9" y2="248.9" stroke="#111" stroke-width="1.4"/><line x1="199.4" y1="253.0" x2="186.6" y2="258.7" stroke="#111" stroke-width="1.4"/><line x1="203.5" y1="261.0" x2="191.4" y2="268.0" stroke="#111" stroke-width="3"/><line x1="208.4" y1="268.5" x2="197.1" y2="276.8" stroke="#111" stroke-width="1.4"/><line x1="214.1" y1="275.5" x2="203.7" y2="284.9" stroke="#111" stroke-width="1.4"/><line x1="220.5" y1="281.9" x2="211.1" y2="292.3" stroke="#111" stroke-width="1.4"/><line x1="227.5" y1="287.6" x2="219.2" y2="298.9" stroke="#111" stroke-width="1.4"/><line x1="235.0" y1="292.5" x2="228.0" y2="304.6" stroke="#111" stroke-width="3"/><line x1="243.0" y1="296.6" x2="237.3" y2="309.4" stroke="#111" stroke-width="1.4"/><line x1="251.4" y1="299.8" x2="247.1" y2="313.1" stroke="#111" stroke-width="1.4"/><line x1="260.1" y1="302.1" x2="257.2" y2="315.8" stroke="#111" stroke-width="1.4"/><line x1="269.0" y1="303.5" x2="267.5" y2="317.5" stroke="#111" stroke-width="1.4"/><line x1="278.0" y1="304.0" x2="278.0" y2="318.0" stroke="#111" stroke-width="3"/><line x1="287.0" y1="303.5" x2="288.5" y2="317.5" stroke="#111" stroke-width="1.4"/><line x1="295.9" y1="302.1" x2="298.8" y2="315.8" stroke="#111" stroke-width="1.4"/><line x1="304.6" y1="299.8" x2="308.9" y2="313.1" stroke="#111" stroke-width="1.4"/><line x1="313.0" y1="296.6" x2="318.7" y2="309.4" stroke="#111" stroke-width="1.4"/><line x1="321.0" y1="292.5" x2="328.0" y2="304.6" stroke="#111" stroke-width="3"/><line x1="328.5" y1="287.6" x2="336.8" y2="298.9" stroke="#111" stroke-width="1.4"/><line x1="335.5" y1="281.9" x2="344.9" y2="292.3" stroke="#111" stroke-width="1.4"/><line x1="341.9" y1="275.5" x2="352.3" y2="284.9" stroke="#111" stroke-width="1.4"/><line x1="347.6" y1="268.5" x2="358.9" y2="276.8" stroke="#111" stroke-width="1.4"/><line x1="352.5" y1="261.0" x2="364.6" y2="268.0" stroke="#111" stroke-width="3"/><line x1="356.6" y1="253.0" x2="369.4" y2="258.7" stroke="#111" stroke-width="1.4"/><line x1="359.8" y1="244.6" x2="373.1" y2="248.9" stroke="#111" stroke-width="1.4"/><line x1="362.1" y1="235.9" x2="375.8" y2="238.8" stroke="#111" stroke-width="1.4"/><line x1="363.5" y1="227.0" x2="377.5" y2="228.5" stroke="#111" stroke-width="1.4"/><path d="M 278 218 L 275.0 161.0 L 282.8 126.1 L 286.9 161.7 Z" fill="#111"/><line x1="278" y1="218" x2="280.6" y2="167.5" stroke="#111" stroke-width="5" stroke-linecap="round"/><path d="M 278 218 L 348.1 255.3 L 386.6 285.8 L 342.2 264.6 Z" fill="#111"/><line x1="278" y1="218" x2="337.7" y2="255.3" stroke="#111" stroke-width="5" stroke-linecap="round"/><circle cx="278" cy="218" r="14" fill="#111"/><circle cx="278" cy="218" r="6" fill="#fff"/>
  <rect x="300.0" y="406.5" width="10.0" height="10.2" rx="1.8" fill="#3a3a3c" stroke="#111" stroke-width="3" transform="rotate(0 305 448)"/><rect x="300.0" y="406.5" width="10.0" height="10.2" rx="1.8" fill="#3a3a3c" stroke="#111" stroke-width="3" transform="rotate(40 305 448)"/><rect x="300.0" y="406.5" width="10.0" height="10.2" rx="1.8" fill="#3a3a3c" stroke="#111" stroke-width="3" transform="rotate(80 305 448)"/><rect x="300.0" y="406.5" width="10.0" height="10.2" rx="1.8" fill="#3a3a3c" stroke="#111" stroke-width="3" transform="rotate(120 305 448)"/><rect x="300.0" y="406.5" width="10.0" height="10.2" rx="1.8" fill="#3a3a3c" stroke="#111" stroke-width="3" transform="rotate(160 305 448)"/><rect x="300.0" y="406.5" width="10.0" height="10.2" rx="1.8" fill="#3a3a3c" stroke="#111" stroke-width="3" transform="rotate(200 305 448)"/><rect x="300.0" y="406.5" width="10.0" height="10.2" rx="1.8" fill="#3a3a3c" stroke="#111" stroke-width="3" transform="rotate(240 305 448)"/><rect x="300.0" y="406.5" width="10.0" height="10.2" rx="1.8" fill="#3a3a3c" stroke="#111" stroke-width="3" transform="rotate(280 305 448)"/><rect x="300.0" y="406.5" width="10.0" height="10.2" rx="1.8" fill="#3a3a3c" stroke="#111" stroke-width="3" transform="rotate(320 305 448)"/><circle cx="305" cy="448" r="34" fill="#3a3a3c" stroke="#111" stroke-width="4"/><circle cx="305" cy="448" r="15" fill="#111"/><circle cx="305" cy="448" r="8.25" fill="#3a3a3c"/><rect x="446.7" y="392.1" width="10.6" height="10.8" rx="1.9" fill="#3a3a3c" stroke="#111" stroke-width="3" transform="rotate(0 452 436)"/><rect x="446.7" y="392.1" width="10.6" height="10.8" rx="1.9" fill="#3a3a3c" stroke="#111" stroke-width="3" transform="rotate(40 452 436)"/><rect x="446.7" y="392.1" width="10.6" height="10.8" rx="1.9" fill="#3a3a3c" stroke="#111" stroke-width="3" transform="rotate(80 452 436)"/><rect x="446.7" y="392.1" width="10.6" height="10.8" rx="1.9" fill="#3a3a3c" stroke="#111" stroke-width="3" transform="rotate(120 452 436)"/><rect x="446.7" y="392.1" width="10.6" height="10.8" rx="1.9" fill="#3a3a3c" stroke="#111" stroke-width="3" transform="rotate(160 452 436)"/><rect x="446.7" y="392.1" width="10.6" height="10.8" rx="1.9" fill="#3a3a3c" stroke="#111" stroke-width="3" transform="rotate(200 452 436)"/><rect x="446.7" y="392.1" width="10.6" height="10.8" rx="1.9" fill="#3a3a3c" stroke="#111" stroke-width="3" transform="rotate(240 452 436)"/><rect x="446.7" y="392.1" width="10.6" height="10.8" rx="1.9" fill="#3a3a3c" stroke="#111" stroke-width="3" transform="rotate(280 452 436)"/><rect x="446.7" y="392.1" width="10.6" height="10.8" rx="1.9" fill="#3a3a3c" stroke="#111" stroke-width="3" transform="rotate(320 452 436)"/><circle cx="452" cy="436" r="36" fill="#3a3a3c" stroke="#111" stroke-width="4"/><circle cx="452" cy="436" r="16" fill="#111"/><circle cx="452" cy="436" r="8.8" fill="#3a3a3c"/><rect x="432.1" y="307.2" width="11.7" height="12.0" rx="2.1" fill="#a9683a" stroke="#111" stroke-width="3" transform="rotate(0 438 356)"/><rect x="432.1" y="307.2" width="11.7" height="12.0" rx="2.1" fill="#a9683a" stroke="#111" stroke-width="3" transform="rotate(40 438 356)"/><rect x="432.1" y="307.2" width="11.7" height="12.0" rx="2.1" fill="#a9683a" stroke="#111" stroke-width="3" transform="rotate(80 438 356)"/><rect x="432.1" y="307.2" width="11.7" height="12.0" rx="2.1" fill="#a9683a" stroke="#111" stroke-width="3" transform="rotate(120 438 356)"/><rect x="432.1" y="307.2" width="11.7" height="12.0" rx="2.1" fill="#a9683a" stroke="#111" stroke-width="3" transform="rotate(160 438 356)"/><rect x="432.1" y="307.2" width="11.7" height="12.0" rx="2.1" fill="#a9683a" stroke="#111" stroke-width="3" transform="rotate(200 438 356)"/><rect x="432.1" y="307.2" width="11.7" height="12.0" rx="2.1" fill="#a9683a" stroke="#111" stroke-width="3" transform="rotate(240 438 356)"/><rect x="432.1" y="307.2" width="11.7" height="12.0" rx="2.1" fill="#a9683a" stroke="#111" stroke-width="3" transform="rotate(280 438 356)"/><rect x="432.1" y="307.2" width="11.7" height="12.0" rx="2.1" fill="#a9683a" stroke="#111" stroke-width="3" transform="rotate(320 438 356)"/><circle cx="438" cy="356" r="40" fill="#a9683a" stroke="#111" stroke-width="4"/><circle cx="438" cy="356" r="19" fill="#111"/><circle cx="438" cy="356" r="10.450000000000001" fill="#a9683a"/><rect x="261.5" y="354.3" width="12.9" height="13.2" rx="2.3" fill="#a9683a" stroke="#111" stroke-width="3" transform="rotate(0 268 408)"/><rect x="261.5" y="354.3" width="12.9" height="13.2" rx="2.3" fill="#a9683a" stroke="#111" stroke-width="3" transform="rotate(40 268 408)"/><rect x="261.5" y="354.3" width="12.9" height="13.2" rx="2.3" fill="#a9683a" stroke="#111" stroke-width="3" transform="rotate(80 268 408)"/><rect x="261.5" y="354.3" width="12.9" height="13.2" rx="2.3" fill="#a9683a" stroke="#111" stroke-width="3" transform="rotate(120 268 408)"/><rect x="261.5" y="354.3" width="12.9" height="13.2" rx="2.3" fill="#a9683a" stroke="#111" stroke-width="3" transform="rotate(160 268 408)"/><rect x="261.5" y="354.3" width="12.9" height="13.2" rx="2.3" fill="#a9683a" stroke="#111" stroke-width="3" transform="rotate(200 268 408)"/><rect x="261.5" y="354.3" width="12.9" height="13.2" rx="2.3" fill="#a9683a" stroke="#111" stroke-width="3" transform="rotate(240 268 408)"/><rect x="261.5" y="354.3" width="12.9" height="13.2" rx="2.3" fill="#a9683a" stroke="#111" stroke-width="3" transform="rotate(280 268 408)"/><rect x="261.5" y="354.3" width="12.9" height="13.2" rx="2.3" fill="#a9683a" stroke="#111" stroke-width="3" transform="rotate(320 268 408)"/><circle cx="268" cy="408" r="44" fill="#a9683a" stroke="#111" stroke-width="4"/><circle cx="268" cy="408" r="22" fill="#111"/><circle cx="268" cy="408" r="12.100000000000001" fill="#a9683a"/><rect x="354.1" y="353.2" width="11.7" height="12.0" rx="2.1" fill="#a9683a" stroke="#111" stroke-width="3" transform="rotate(0 360 402)"/><rect x="354.1" y="353.2" width="11.7" height="12.0" rx="2.1" fill="#a9683a" stroke="#111" stroke-width="3" transform="rotate(40 360 402)"/><rect x="354.1" y="353.2" width="11.7" height="12.0" rx="2.1" fill="#a9683a" stroke="#111" stroke-width="3" transform="rotate(80 360 402)"/><rect x="354.1" y="353.2" width="11.7" height="12.0" rx="2.1" fill="#a9683a" stroke="#111" stroke-width="3" transform="rotate(120 360 402)"/><rect x="354.1" y="353.2" width="11.7" height="12.0" rx="2.1" fill="#a9683a" stroke="#111" stroke-width="3" transform="rotate(160 360 402)"/><rect x="354.1" y="353.2" width="11.7" height="12.0" rx="2.1" fill="#a9683a" stroke="#111" stroke-width="3" transform="rotate(200 360 402)"/><rect x="354.1" y="353.2" width="11.7" height="12.0" rx="2.1" fill="#a9683a" stroke="#111" stroke-width="3" transform="rotate(240 360 402)"/><rect x="354.1" y="353.2" width="11.7" height="12.0" rx="2.1" fill="#a9683a" stroke="#111" stroke-width="3" transform="rotate(280 360 402)"/><rect x="354.1" y="353.2" width="11.7" height="12.0" rx="2.1" fill="#a9683a" stroke="#111" stroke-width="3" transform="rotate(320 360 402)"/><circle cx="360" cy="402" r="40" fill="#a9683a" stroke="#111" stroke-width="4"/><circle cx="360" cy="402" r="18" fill="#111"/><circle cx="360" cy="402" r="9.9" fill="#a9683a"/>
</svg>